<svg width="874" height="119" viewBox="0 0 874 119" fill="none" xmlns="http://www.w3.org/2000/svg">
<path d="M10.3028 54.8529C93.2924 26.3553 189.988 14.5743 285.329 11.1336C324.879 9.70629 364.609 11.4337 404.338 13.7166C413.22 14.2269 431.274 13.6328 440.146 16.9218C441.296 17.3482 438.789 18.413 437.609 18.705C426.222 21.5226 414.37 23.6096 402.829 26.1913C337.547 40.7959 273.405 57.3474 213.392 78.94C200.708 83.5036 188.433 88.5019 176.266 93.5844C167.608 97.201 156.953 99.6316 150.943 105.026C149.048 106.727 156.75 108.354 160.056 108.133C180.634 106.757 200.558 103.301 220.591 100.371C440.082 68.2597 226.383 96.9949 457.301 64.0987C500.17 57.9917 543.835 51.7856 588.004 48.8297C594.925 48.3666 614.946 47.0572 609.045 49.258C598.497 53.192 583.911 55.1011 572.725 58.0811C538.618 67.1671 496.771 76.5216 474.827 96.6596C473.457 97.917 466.809 103.376 467.784 105.451C468.239 106.421 470.898 105.875 472.426 105.773C488.386 104.707 504.224 103.196 520.14 101.968C634.012 93.1812 748.024 86.8065 863.615 87.1235" stroke="#7CE2AB" stroke-opacity="0.35" stroke-width="20" stroke-linecap="round"/>
</svg>
